<svg width="181" height="33" viewBox="0 0 181 33" fill="none" xmlns="http://www.w3.org/2000/svg">
<g clip-path="url(#clip0_6_20)">
<rect width="181" height="33" rx="5" fill="white"/>
<path d="M20 5C13.9 5 9 9.9 9 16C9 22.1 13.9 27 20 27C26.1 27 31 22.1 31 16C31 9.9 26.1 5 20 5ZM25 18H22V21C22 22.1 21.1 23 20 23C18.9 23 18 22.1 18 21V18H15C13.9 18 13 17.1 13 16C13 14.9 13.9 14 15 14H18V11C18 9.9 18.9 9 20 9C21.1 9 22 9.9 22 11V14H25C26.1 14 27 14.9 27 16C27 17.1 26.1 18 25 18Z" fill="black"/>
<path d="M54.8984 17.9395C54.7402 19.293 54.2393 20.3389 53.3955 21.0771C52.5576 21.8096 51.4414 22.1758 50.0469 22.1758C48.5352 22.1758 47.3223 21.6338 46.4082 20.5498C45.5 19.4658 45.0459 18.0156 45.0459 16.1992V14.9688C45.0459 13.7793 45.2568 12.7334 45.6787 11.8311C46.1064 10.9287 46.71 10.2373 47.4893 9.75684C48.2686 9.27051 49.1709 9.02734 50.1963 9.02734C51.5557 9.02734 52.6455 9.4082 53.4658 10.1699C54.2861 10.9258 54.7637 11.9746 54.8984 13.3164H53.2021C53.0557 12.2969 52.7363 11.5586 52.2441 11.1016C51.7578 10.6445 51.0752 10.416 50.1963 10.416C49.1182 10.416 48.2715 10.8145 47.6562 11.6113C47.0469 12.4082 46.7422 13.542 46.7422 15.0127V16.252C46.7422 17.6406 47.0322 18.7451 47.6123 19.5654C48.1924 20.3857 49.0039 20.7959 50.0469 20.7959C50.9844 20.7959 51.7021 20.585 52.2002 20.1631C52.7041 19.7354 53.0381 18.9941 53.2021 17.9395H54.8984ZM61.5518 13.9492C61.3057 13.9082 61.0391 13.8877 60.752 13.8877C59.6855 13.8877 58.9619 14.3418 58.5811 15.25V22H56.9551V12.4902H58.5371L58.5635 13.5889C59.0967 12.7393 59.8525 12.3145 60.8311 12.3145C61.1475 12.3145 61.3877 12.3555 61.5518 12.4375V13.9492ZM66.8252 22.1758C65.5361 22.1758 64.4873 21.7539 63.6787 20.9102C62.8701 20.0605 62.4658 18.9268 62.4658 17.5088V17.21C62.4658 16.2666 62.6445 15.4258 63.002 14.6875C63.3652 13.9434 63.8691 13.3633 64.5137 12.9473C65.1641 12.5254 65.8672 12.3145 66.623 12.3145C67.8594 12.3145 68.8203 12.7217 69.5059 13.5361C70.1914 14.3506 70.5342 15.5166 70.5342 17.0342V17.7109H64.0918C64.1152 18.6484 64.3877 19.4072 64.9092 19.9873C65.4365 20.5615 66.1045 20.8486 66.9131 20.8486C67.4873 20.8486 67.9736 20.7314 68.3721 20.4971C68.7705 20.2627 69.1191 19.9521 69.418 19.5654L70.4111 20.3389C69.6143 21.5635 68.4189 22.1758 66.8252 22.1758ZM66.623 13.6504C65.9668 13.6504 65.416 13.8906 64.9707 14.3711C64.5254 14.8457 64.25 15.5137 64.1445 16.375H68.9082V16.252C68.8613 15.4258 68.6387 14.7871 68.2402 14.3359C67.8418 13.8789 67.3027 13.6504 66.623 13.6504ZM78.2949 22C78.2012 21.8125 78.125 21.4785 78.0664 20.998C77.3105 21.7832 76.4082 22.1758 75.3594 22.1758C74.4219 22.1758 73.6514 21.9121 73.0479 21.3848C72.4502 20.8516 72.1514 20.1777 72.1514 19.3633C72.1514 18.373 72.5264 17.6055 73.2764 17.0605C74.0322 16.5098 75.0928 16.2344 76.458 16.2344H78.04V15.4873C78.04 14.9189 77.8701 14.4678 77.5303 14.1338C77.1904 13.7939 76.6895 13.624 76.0273 13.624C75.4473 13.624 74.9609 13.7705 74.5684 14.0635C74.1758 14.3564 73.9795 14.7109 73.9795 15.127H72.3447C72.3447 14.6523 72.5117 14.1953 72.8457 13.7559C73.1855 13.3105 73.6426 12.959 74.2168 12.7012C74.7969 12.4434 75.4326 12.3145 76.124 12.3145C77.2197 12.3145 78.0781 12.5898 78.6992 13.1406C79.3203 13.6855 79.6426 14.4385 79.666 15.3994V19.7764C79.666 20.6494 79.7773 21.3438 80 21.8594V22H78.2949ZM75.5967 20.7607C76.1064 20.7607 76.5898 20.6289 77.0469 20.3652C77.5039 20.1016 77.835 19.7588 78.04 19.3369V17.3857H76.7656C74.7734 17.3857 73.7773 17.9688 73.7773 19.1348C73.7773 19.6445 73.9473 20.043 74.2871 20.3301C74.627 20.6172 75.0635 20.7607 75.5967 20.7607ZM84.4209 10.1875V12.4902H86.1963V13.7471H84.4209V19.6445C84.4209 20.0254 84.5 20.3125 84.6582 20.5059C84.8164 20.6934 85.0859 20.7871 85.4668 20.7871C85.6543 20.7871 85.9121 20.752 86.2402 20.6816V22C85.8125 22.1172 85.3965 22.1758 84.9922 22.1758C84.2656 22.1758 83.7178 21.9561 83.3486 21.5166C82.9795 21.0771 82.7949 20.4531 82.7949 19.6445V13.7471H81.0635V12.4902H82.7949V10.1875H84.4209ZM92.0498 22.1758C90.7607 22.1758 89.7119 21.7539 88.9033 20.9102C88.0947 20.0605 87.6904 18.9268 87.6904 17.5088V17.21C87.6904 16.2666 87.8691 15.4258 88.2266 14.6875C88.5898 13.9434 89.0938 13.3633 89.7383 12.9473C90.3887 12.5254 91.0918 12.3145 91.8477 12.3145C93.084 12.3145 94.0449 12.7217 94.7305 13.5361C95.416 14.3506 95.7588 15.5166 95.7588 17.0342V17.7109H89.3164C89.3398 18.6484 89.6123 19.4072 90.1338 19.9873C90.6611 20.5615 91.3291 20.8486 92.1377 20.8486C92.7119 20.8486 93.1982 20.7314 93.5967 20.4971C93.9951 20.2627 94.3438 19.9521 94.6426 19.5654L95.6357 20.3389C94.8389 21.5635 93.6436 22.1758 92.0498 22.1758ZM91.8477 13.6504C91.1914 13.6504 90.6406 13.8906 90.1953 14.3711C89.75 14.8457 89.4746 15.5137 89.3691 16.375H94.1328V16.252C94.0859 15.4258 93.8633 14.7871 93.4648 14.3359C93.0664 13.8789 92.5273 13.6504 91.8477 13.6504ZM103.651 12.4902L103.704 13.6855C104.431 12.7715 105.38 12.3145 106.552 12.3145C108.562 12.3145 109.575 13.4482 109.593 15.7158V22H107.967V15.707C107.961 15.0215 107.803 14.5146 107.492 14.1865C107.188 13.8584 106.71 13.6943 106.06 13.6943C105.532 13.6943 105.069 13.835 104.671 14.1162C104.272 14.3975 103.962 14.7666 103.739 15.2236V22H102.113V12.4902H103.651ZM115.991 22.1758C114.702 22.1758 113.653 21.7539 112.845 20.9102C112.036 20.0605 111.632 18.9268 111.632 17.5088V17.21C111.632 16.2666 111.811 15.4258 112.168 14.6875C112.531 13.9434 113.035 13.3633 113.68 12.9473C114.33 12.5254 115.033 12.3145 115.789 12.3145C117.025 12.3145 117.986 12.7217 118.672 13.5361C119.357 14.3506 119.7 15.5166 119.7 17.0342V17.7109H113.258C113.281 18.6484 113.554 19.4072 114.075 19.9873C114.603 20.5615 115.271 20.8486 116.079 20.8486C116.653 20.8486 117.14 20.7314 117.538 20.4971C117.937 20.2627 118.285 19.9521 118.584 19.5654L119.577 20.3389C118.78 21.5635 117.585 22.1758 115.991 22.1758ZM115.789 13.6504C115.133 13.6504 114.582 13.8906 114.137 14.3711C113.691 14.8457 113.416 15.5137 113.311 16.375H118.074V16.252C118.027 15.4258 117.805 14.7871 117.406 14.3359C117.008 13.8789 116.469 13.6504 115.789 13.6504ZM130.01 19.7588L131.838 12.4902H133.464L130.695 22H129.377L127.065 14.793L124.815 22H123.497L120.737 12.4902H122.354L124.227 19.6094L126.441 12.4902H127.751L130.01 19.7588ZM141.356 22H139.73V8.5H141.356V22ZM145.733 22H144.107V12.4902H145.733V22ZM143.976 9.96777C143.976 9.7041 144.055 9.48145 144.213 9.2998C144.377 9.11816 144.617 9.02734 144.934 9.02734C145.25 9.02734 145.49 9.11816 145.654 9.2998C145.818 9.48145 145.9 9.7041 145.9 9.96777C145.9 10.2314 145.818 10.4512 145.654 10.627C145.49 10.8027 145.25 10.8906 144.934 10.8906C144.617 10.8906 144.377 10.8027 144.213 10.627C144.055 10.4512 143.976 10.2314 143.976 9.96777ZM153.881 19.4775C153.881 19.0381 153.714 18.6982 153.38 18.458C153.052 18.2119 152.475 18.001 151.648 17.8252C150.828 17.6494 150.175 17.4385 149.688 17.1924C149.208 16.9463 148.851 16.6533 148.616 16.3135C148.388 15.9736 148.273 15.5693 148.273 15.1006C148.273 14.3213 148.602 13.6621 149.258 13.123C149.92 12.584 150.764 12.3145 151.789 12.3145C152.867 12.3145 153.74 12.5928 154.408 13.1494C155.082 13.7061 155.419 14.418 155.419 15.2852H153.784C153.784 14.8398 153.594 14.4561 153.213 14.1338C152.838 13.8115 152.363 13.6504 151.789 13.6504C151.197 13.6504 150.734 13.7793 150.4 14.0371C150.066 14.2949 149.899 14.6318 149.899 15.0479C149.899 15.4404 150.055 15.7363 150.365 15.9355C150.676 16.1348 151.235 16.3252 152.044 16.5068C152.858 16.6885 153.518 16.9053 154.021 17.1572C154.525 17.4092 154.897 17.7139 155.138 18.0713C155.384 18.4229 155.507 18.8535 155.507 19.3633C155.507 20.2129 155.167 20.8955 154.487 21.4111C153.808 21.9209 152.926 22.1758 151.842 22.1758C151.08 22.1758 150.406 22.041 149.82 21.7715C149.234 21.502 148.774 21.127 148.44 20.6465C148.112 20.1602 147.948 19.6357 147.948 19.0732H149.574C149.604 19.6182 149.82 20.0518 150.225 20.374C150.635 20.6904 151.174 20.8486 151.842 20.8486C152.457 20.8486 152.949 20.7256 153.318 20.4795C153.693 20.2275 153.881 19.8936 153.881 19.4775ZM159.831 10.1875V12.4902H161.606V13.7471H159.831V19.6445C159.831 20.0254 159.91 20.3125 160.068 20.5059C160.227 20.6934 160.496 20.7871 160.877 20.7871C161.064 20.7871 161.322 20.752 161.65 20.6816V22C161.223 22.1172 160.807 22.1758 160.402 22.1758C159.676 22.1758 159.128 21.9561 158.759 21.5166C158.39 21.0771 158.205 20.4531 158.205 19.6445V13.7471H156.474V12.4902H158.205V10.1875H159.831Z" fill="black"/>
</g>
<defs>
<clipPath id="clip0_6_20">
<rect width="181" height="33" fill="white"/>
</clipPath>
</defs>
</svg>
